<?xml version="1.0" encoding="utf-8"?>
<!-- Generator: Adobe Illustrator 26.3.1, SVG Export Plug-In . SVG Version: 6.00 Build 0)  -->
<svg version="1.1" id="Layer_1" xmlns="http://www.w3.org/2000/svg" xmlns:xlink="http://www.w3.org/1999/xlink" x="0px" y="0px"
	 viewBox="0 0 502.1 106.2" style="enable-background:new 0 0 502.1 106.2;" xml:space="preserve">
<style type="text/css">
	.st0{fill:#FFFFFF;}
	.st1{clip-path:url(#SVGID_00000021104441154265521740000011088825975911994267_);}
	.st2{clip-path:url(#SVGID_00000006705550305852607190000006520755749781217157_);}
	.st3{clip-path:url(#SVGID_00000179622651790267294460000000719518087899679640_);}
</style>
<g>
	<path class="st0" d="M185,90.6h0.8c0.2,1.6,0.9,3.1,2,4.3c0.9,0.9,2,1.4,3.2,1.3c1.6,0.2,3-0.9,3.2-2.5c0-0.1,0-0.3,0-0.4
		c0-0.7-0.3-1.4-0.8-1.9c-0.6-0.5-1.3-0.9-2.1-1.3l-1.7-0.9c-1.3-0.6-2.5-1.4-3.5-2.5c-0.7-0.9-1-2-1-3.1c0-1.3,0.5-2.6,1.4-3.6
		c1.1-1.2,2.6-1.8,4.2-1.7c0.9,0,1.9,0.1,2.8,0.4c0.5,0.2,1,0.3,1.5,0.4c0.2,0,0.5-0.1,0.6-0.2c0.1-0.2,0.2-0.4,0.3-0.7h0.8v5.8
		h-0.7c-0.3-1.3-0.9-2.5-1.8-3.4c-0.8-0.9-1.9-1.4-3.1-1.4c-0.8,0-1.5,0.2-2.1,0.7c-0.5,0.5-0.8,1.1-0.8,1.8
		c-0.1,0.7,0.2,1.4,0.7,1.9c1,0.7,2,1.4,3.1,1.9l2,1c0.7,0.4,1.4,0.9,2,1.5c1,1,1.5,2.3,1.4,3.6c0,1.4-0.6,2.8-1.6,3.8
		c-1,1.2-2.7,1.8-5,1.8c-1.1,0-2.2-0.2-3.2-0.6l-0.5-0.2l-0.4-0.1h-0.3c-0.2,0-0.4,0.1-0.6,0.2c-0.1,0.2-0.2,0.4-0.3,0.7H185V90.6z"
		/>
	<path class="st0" d="M201.2,91.5c1.7-0.9,3.5-1.6,5.4-2.1v-1.9c0.1-0.6-0.1-1.2-0.5-1.7c-0.5-0.4-1.1-0.6-1.8-0.6
		c-0.4,0-0.8,0.1-1.2,0.3c-0.3,0.1-0.4,0.4-0.4,0.7c0,0.1,0,0.2,0.1,0.3c0,0.1,0.1,0.1,0.1,0.2l0.2,0.2c0.1,0.1,0.2,0.3,0.3,0.5
		c0.1,0.2,0.1,0.4,0.1,0.6c0,0.4-0.2,0.9-0.5,1.2c-0.3,0.3-0.7,0.4-1.1,0.4c-0.5,0-0.9-0.2-1.3-0.4c-0.4-0.3-0.6-0.8-0.5-1.3
		c0-1,0.6-1.9,1.4-2.4c1.1-0.6,2.3-0.9,3.5-0.9c1.3,0,2.6,0.3,3.8,0.9c1.1,0.7,1.6,2,1.5,3.2v6.4c0,0.2,0,0.3,0.1,0.5
		c0.1,0.1,0.2,0.2,0.3,0.2c0.1,0,0.2,0,0.3-0.1c0.1-0.1,0.3-0.2,0.4-0.3l0.4,0.6c-0.4,0.6-1,1-1.7,1.3c-0.4,0.2-0.8,0.2-1.2,0.2
		c-0.7,0.1-1.3-0.2-1.7-0.7c-0.2-0.3-0.4-0.7-0.4-1.1c-0.7,0.7-1.5,1.2-2.5,1.6c-0.5,0.2-1.1,0.3-1.6,0.3c-0.7,0-1.4-0.3-2-0.7
		c-0.7-0.5-1-1.3-0.9-2.1C199.5,93.1,200.2,92,201.2,91.5z M205.8,94.9c0.3-0.2,0.5-0.5,0.7-0.7v-3.9c-0.7,0.2-1.3,0.4-1.9,0.8
		c-0.8,0.5-1.3,1.4-1.4,2.4c0,0.5,0.1,0.9,0.4,1.3c0.2,0.3,0.5,0.4,0.9,0.4C205,95.3,205.4,95.1,205.8,94.9z"/>
	<path class="st0" d="M212.4,96.1c0.4,0,0.8-0.1,1.2-0.4c0.3-0.3,0.4-0.8,0.4-1.2V86h-1.5v-1.2h1.5v-1c0-1,0.2-2.1,0.6-3
		c0.8-1.5,2.3-2.4,4-2.2c0.9,0,1.9,0.2,2.7,0.7c0.7,0.4,1.1,1.1,1.1,1.9c0,0.4-0.1,0.9-0.5,1.2c-0.3,0.3-0.8,0.5-1.2,0.4
		c-0.4,0-0.8-0.1-1.1-0.4c-0.3-0.3-0.5-0.6-0.4-1c0-0.3,0.1-0.7,0.3-0.9c0.1-0.2,0.2-0.4,0.3-0.6c0-0.2-0.1-0.3-0.2-0.4
		c-0.2-0.1-0.3-0.1-0.5-0.1c-0.4,0-0.7,0.1-1,0.4c-0.3,0.5-0.4,1-0.4,1.6v3.4h2.3V86h-2.3v8.1c0,0.9,0.1,1.5,0.4,1.7
		c0.5,0.3,1.1,0.4,1.8,0.4v0.6h-7.3L212.4,96.1z"/>
	<path class="st0" d="M223,86c1-1.1,2.4-1.7,3.9-1.7c0.9,0,1.7,0.2,2.4,0.7c0.8,0.4,1.4,1.1,1.8,1.9c0.4,0.7,0.6,1.5,0.6,2.4
		c0,0.3,0.1,0.7,0.1,1h-6.8c0,0.9,0.2,1.9,0.5,2.7c0.3,1.3,1.4,2.2,2.7,2.2c0.6,0,1.2-0.2,1.8-0.6c0.5-0.3,0.9-0.7,1.3-1.2l0.6,0.4
		c-0.7,1.2-1.6,2.2-2.8,2.8c-2,1-4.4,0.6-6.1-1c-1.1-1-1.7-2.7-1.7-4.9C221.3,89,221.9,87.3,223,86z M228.6,89.3
		c0-1.1-0.1-2.2-0.4-3.3c-0.2-0.6-0.7-1-1.3-0.9c-0.7,0-1.3,0.4-1.4,1.1c-0.3,1-0.4,2.1-0.4,3.1H228.6z"/>
	<path class="st0" d="M233,85.8V85c0.2-0.2,0.5-0.5,0.9-0.8c0.3-0.3,0.9-0.8,1.3-1.3c0.8-0.9,1.5-1.8,2.2-2.8h0.7v4.5h2.5v1.2H238
		v7.9c0,0.3,0,0.6,0.2,0.9c0.1,0.4,0.5,0.6,0.9,0.6c0.3,0,0.6-0.1,0.9-0.4c0.3-0.3,0.5-0.6,0.7-1l0.6,0.3c-0.3,0.7-0.6,1.2-1.1,1.8
		c-0.7,0.8-1.7,1.2-2.8,1.2c-0.6,0-1.1-0.1-1.6-0.3c-0.9-0.5-1.4-1.4-1.4-2.4v-8.6H233z"/>
	<path class="st0" d="M241.9,98.8c0.4-0.3,0.8-0.4,1.3-0.4c0.4,0,0.8,0.1,1.1,0.4c0.3,0.2,0.4,0.5,0.4,0.9l-0.1,0.6
		c0,0.1,0,0.2,0.1,0.3c0.1,0.1,0.2,0.1,0.3,0.1c0.5,0,0.9-0.4,1.3-1.1c0.4-0.9,0.8-1.7,1.1-2.6l-3.1-7.7c-0.2-0.6-0.4-1.1-0.6-1.6
		c-0.2-0.5-0.4-1-0.7-1.4c-0.1-0.3-0.3-0.6-0.6-0.9c-0.2-0.1-0.5-0.2-0.8-0.2v-0.6h6.6v0.6c-0.3,0-0.7,0-1,0.1
		c-0.3,0.1-0.4,0.3-0.4,0.6c0,0.1,0,0.2,0,0.2c0,0.1,0.1,0.3,0.2,0.6l2.1,5.2h0.1l1.7-4.6c0.1-0.3,0.2-0.5,0.2-0.7
		c0-0.2,0.1-0.3,0.1-0.5c0-0.4-0.1-0.6-0.4-0.7c-0.4-0.1-0.7-0.2-1.1-0.2v-0.6h4v0.6c-0.3,0-0.6,0.1-0.8,0.3
		c-0.3,0.3-0.6,0.7-0.7,1.1l-3.9,10.5c-0.5,1.4-1.2,2.8-2,4c-0.7,0.7-1.6,1.1-2.6,1c-0.7,0.1-1.4-0.2-2-0.6
		c-0.4-0.4-0.6-0.9-0.7-1.4C241.2,99.6,241.5,99.1,241.9,98.8z"/>
	<path class="st0" d="M264.6,81.4c1.7-1.8,4.2-2.9,6.7-2.8c1.1,0,2.2,0.2,3.3,0.6c0.6,0.3,1.3,0.5,2,0.6c0.3,0,0.5-0.1,0.7-0.3
		c0.2-0.3,0.3-0.6,0.4-0.9h0.7v6.2h-0.7c-0.5-1.1-1.2-2.2-2-3.2c-1-1.3-2.6-2.1-4.2-2.1c-1.6-0.1-3,0.8-3.7,2.2
		c-0.9,2-1.3,4.1-1.2,6.2c0,2,0.3,4,1.1,5.9c0.7,1.7,2.4,2.8,4.2,2.6c0.8,0.1,1.7-0.2,2.3-0.7c0.3-0.4,0.4-0.8,0.3-1.2v-2.8
		c0.1-0.6-0.2-1.2-0.7-1.6c-0.6-0.2-1.3-0.3-1.9-0.3v-0.7h9.1v0.7c-0.7-0.1-1.3,0.1-1.8,0.6c-0.4,0.6-0.5,1.2-0.4,1.9v3.4
		c-0.9,0.5-1.8,0.8-2.8,1.1c-1.4,0.4-2.9,0.6-4.4,0.5c-2.6,0.1-5.2-0.9-7-2.8c-1.6-1.8-2.5-4.1-2.5-6.5
		C262.1,85.5,263,83.2,264.6,81.4z"/>
	<path class="st0" d="M282.1,96.1c0.4-0.1,0.7-0.2,1-0.4c0.2-0.3,0.3-0.7,0.3-1.2V81.1c0.1-0.4,0-0.8-0.3-1.1
		c-0.3-0.2-0.6-0.4-1-0.4v-0.6h5v15.6c-0.1,0.4,0.1,0.8,0.3,1.2c0.3,0.2,0.6,0.4,1,0.4v0.6h-6.3V96.1z"/>
	<path class="st0" d="M291.4,91.5c1.7-0.9,3.5-1.6,5.4-2.1v-1.9c0.1-0.6-0.1-1.2-0.5-1.7c-0.5-0.4-1.1-0.6-1.8-0.6
		c-0.4,0-0.8,0.1-1.2,0.3c-0.3,0.1-0.4,0.4-0.5,0.7c0,0.1,0,0.2,0,0.3c0,0.1,0.1,0.1,0.1,0.2l0.2,0.2c0.1,0.1,0.2,0.3,0.3,0.5
		c0.1,0.2,0.1,0.4,0.1,0.6c0,0.4-0.2,0.9-0.5,1.2c-0.3,0.3-0.7,0.4-1.1,0.4c-0.5,0-0.9-0.2-1.3-0.4c-0.4-0.3-0.6-0.8-0.5-1.3
		c0-1,0.5-1.9,1.4-2.4c1.1-0.6,2.3-0.9,3.5-0.9c1.3,0,2.6,0.3,3.8,0.9c1.1,0.7,1.6,2,1.5,3.2v6.4c0,0.2,0,0.3,0.1,0.5
		c0.1,0.1,0.2,0.2,0.3,0.2c0.1,0,0.2,0,0.3-0.1c0.1-0.1,0.3-0.2,0.4-0.3l0.4,0.6c-0.5,0.6-1,1-1.7,1.3c-0.4,0.2-0.8,0.2-1.2,0.2
		c-0.7,0.1-1.3-0.2-1.7-0.7c-0.2-0.3-0.4-0.7-0.5-1.1c-0.7,0.7-1.5,1.2-2.5,1.6c-0.5,0.2-1.1,0.3-1.6,0.3c-0.7,0-1.4-0.3-2-0.7
		c-0.7-0.5-1-1.3-0.9-2.1C289.7,93.1,290.4,92,291.4,91.5z M296,94.9c0.3-0.2,0.5-0.5,0.7-0.7v-3.9c-0.7,0.2-1.3,0.4-1.9,0.8
		c-0.8,0.5-1.3,1.4-1.4,2.4c0,0.5,0.1,0.9,0.4,1.3c0.2,0.3,0.5,0.4,0.9,0.4C295.3,95.3,295.7,95.1,296,94.9L296,94.9z"/>
	<path class="st0" d="M302.9,92.8h0.7c0.1,1,0.6,2,1.4,2.7c0.6,0.5,1.4,0.8,2.2,0.8c0.5,0,1.1-0.1,1.5-0.5c0.3-0.3,0.5-0.8,0.5-1.2
		c0-0.5-0.2-0.9-0.5-1.2c-0.3-0.2-0.6-0.4-0.9-0.6l-2-1c-0.9-0.4-1.6-0.9-2.2-1.6c-0.5-0.6-0.7-1.4-0.7-2.1c0-1,0.4-1.9,1.1-2.6
		c0.8-0.8,1.9-1.2,3-1.1c0.6,0,1.2,0.1,1.8,0.3c0.4,0.1,0.8,0.2,1.2,0.3c0.2,0,0.3,0,0.5-0.1c0.1-0.1,0.2-0.2,0.2-0.4h0.6v3.8h-0.7
		c-0.2-0.8-0.6-1.6-1.2-2.1c-0.5-0.5-1.3-0.8-2-0.8c-0.5,0-1,0.1-1.3,0.5c-0.3,0.3-0.4,0.7-0.4,1.1c0,0.3,0.2,0.7,0.4,0.9
		c0.4,0.4,0.9,0.8,1.4,1l1.5,0.7c0.7,0.3,1.4,0.7,2,1.2c0.7,0.7,1,1.6,1,2.5c0,1-0.4,2-1.1,2.8c-0.8,0.9-2,1.4-3.2,1.3
		c-0.4,0-0.7-0.1-1.1-0.2c-0.4-0.1-0.9-0.2-1.3-0.4l-0.5-0.2l-0.3-0.1h-0.1c-0.1,0-0.3,0.1-0.4,0.2c-0.1,0.2-0.3,0.4-0.4,0.6h-0.6
		L302.9,92.8z"/>
	<path class="st0" d="M313.2,92.8h0.7c0.1,1,0.6,2,1.4,2.7c0.6,0.5,1.4,0.8,2.2,0.8c0.5,0,1.1-0.1,1.5-0.5c0.3-0.3,0.5-0.7,0.5-1.2
		c0-0.5-0.2-0.9-0.5-1.2c-0.3-0.2-0.6-0.4-0.9-0.6l-2-1c-0.9-0.4-1.6-0.9-2.2-1.6c-0.5-0.6-0.7-1.4-0.7-2.1c0-1,0.4-1.9,1.1-2.7
		c0.8-0.8,1.9-1.2,3-1.1c0.6,0,1.2,0.1,1.8,0.3c0.4,0.1,0.8,0.2,1.2,0.3c0.2,0,0.3,0,0.5-0.1c0.1-0.1,0.2-0.2,0.2-0.4h0.6v3.8h-0.7
		c-0.2-0.8-0.6-1.5-1.2-2.1c-0.5-0.5-1.3-0.8-2-0.8c-0.5,0-1,0.1-1.3,0.5c-0.3,0.3-0.4,0.7-0.4,1.1c0,0.3,0.2,0.7,0.4,0.9
		c0.4,0.4,0.9,0.8,1.4,1l1.5,0.7c0.7,0.3,1.4,0.7,2,1.2c0.7,0.7,1,1.6,1,2.5c0,1-0.4,2-1.1,2.7c-0.8,0.9-2,1.3-3.2,1.3
		c-0.4,0-0.7,0-1.1-0.1c-0.4-0.1-0.9-0.2-1.3-0.4l-0.4-0.2l-0.3-0.1h-0.1c-0.1,0-0.3,0.1-0.4,0.2c-0.2,0.2-0.3,0.4-0.4,0.6h-0.6
		L313.2,92.8z"/>
	<path class="st0" d="M329.8,96.1c0.6,0,1.1-0.1,1.6-0.3c0.5-0.3,0.8-0.9,0.7-1.6V81.4c0.1-0.6-0.2-1.2-0.7-1.6
		c-0.5-0.2-1.1-0.3-1.6-0.3v-0.7h15v5.3h-0.6c-0.2-1.3-0.7-2.5-1.6-3.4c-0.8-0.7-2.2-1-4.3-1c-0.5-0.1-1,0-1.5,0.3
		c-0.2,0.3-0.4,0.6-0.3,1v6.1c1.1,0.2,2.1-0.2,2.9-0.9c0.6-0.9,1-1.9,1.1-3h0.7v8.9h-0.7c-0.1-1.1-0.4-2.2-1.1-3.1
		c-0.8-0.7-1.9-1.1-3-1v6.2c0,0.8,0.2,1.3,0.7,1.6c0.7,0.3,1.4,0.4,2.2,0.3v0.7h-9.5L329.8,96.1z"/>
	<path class="st0" d="M347.9,91.5c1.7-0.9,3.5-1.6,5.4-2.1v-1.9c0.1-0.6-0.1-1.2-0.5-1.7c-0.5-0.4-1.1-0.6-1.8-0.6
		c-0.4,0-0.8,0.1-1.2,0.3c-0.3,0.1-0.4,0.4-0.5,0.7c0,0.1,0,0.2,0,0.3c0,0.1,0.1,0.1,0.2,0.2l0.1,0.2c0.1,0.1,0.2,0.3,0.3,0.5
		c0.1,0.2,0.1,0.4,0.1,0.6c0,0.4-0.2,0.9-0.5,1.2c-0.3,0.3-0.7,0.4-1.1,0.4c-0.5,0-0.9-0.2-1.3-0.4c-0.4-0.3-0.6-0.8-0.5-1.3
		c0-1,0.5-1.9,1.4-2.4c1.1-0.6,2.3-0.9,3.5-0.9c1.3,0,2.6,0.3,3.8,0.9c1.1,0.7,1.6,2,1.5,3.2v6.4c0,0.2,0,0.3,0.1,0.5
		c0.1,0.1,0.2,0.2,0.3,0.2c0.1,0,0.2,0,0.3-0.1c0.1-0.1,0.3-0.2,0.4-0.3l0.4,0.6c-0.5,0.6-1.1,1-1.7,1.3c-0.4,0.2-0.8,0.2-1.2,0.2
		c-0.7,0.1-1.3-0.2-1.7-0.7c-0.2-0.3-0.4-0.7-0.5-1.1c-0.7,0.7-1.5,1.2-2.5,1.6c-0.5,0.2-1.1,0.3-1.7,0.3c-0.7,0-1.4-0.3-2-0.7
		c-0.7-0.5-1-1.3-0.9-2.1C346.2,93.1,346.9,92,347.9,91.5z M352.5,94.9c0.3-0.2,0.5-0.5,0.7-0.7v-3.9c-0.7,0.2-1.3,0.4-1.9,0.8
		c-0.9,0.5-1.4,1.4-1.4,2.4c0,0.5,0.1,0.9,0.4,1.3c0.2,0.3,0.5,0.4,0.9,0.4C351.7,95.3,352.2,95.1,352.5,94.9z"/>
	<path class="st0" d="M368.4,85.1c0.7,0.4,1.2,1.2,1.2,2.1c0,0.9-0.7,1.7-1.6,1.7c0,0,0,0-0.1,0c-0.3,0-0.6-0.1-0.9-0.2
		c-0.5-0.3-0.8-0.9-0.7-1.5c0-0.1,0-0.2,0-0.4c0-0.1,0-0.3,0-0.5c0.1-0.4-0.1-0.7-0.3-1c-0.2-0.2-0.5-0.3-0.8-0.3
		c-0.8,0-1.5,0.6-1.7,1.4c-0.4,1-0.5,2-0.5,3.1c0,1.4,0.3,2.9,1,4.1c0.5,1,1.5,1.7,2.6,1.7c0.6,0,1.2-0.1,1.8-0.5
		c0.4-0.3,0.8-0.6,1.1-1l0.5,0.4c-0.7,1.1-1.8,2-3,2.5c-2.1,0.8-4.6,0.2-6.1-1.5c-1.1-1.2-1.7-2.8-1.6-4.4c0-1.7,0.6-3.4,1.7-4.6
		c1.2-1.3,2.8-2,4.6-1.9C366.6,84.2,367.6,84.5,368.4,85.1z"/>
	<path class="st0" d="M370.9,85.8V85c0.2-0.2,0.5-0.5,0.9-0.8c0.4-0.4,0.9-0.8,1.2-1.2c0.8-0.9,1.5-1.8,2.2-2.8h0.7v4.5h2.5v1.2
		h-2.5v7.9c0,0.3,0,0.6,0.2,0.9c0.1,0.4,0.5,0.6,0.9,0.6c0.3,0,0.6-0.1,0.9-0.4c0.3-0.3,0.5-0.6,0.7-1l0.6,0.3
		c-0.3,0.6-0.6,1.2-1.1,1.8c-0.7,0.8-1.7,1.2-2.8,1.2c-0.6,0-1.1-0.1-1.6-0.4c-0.9-0.5-1.4-1.4-1.4-2.4v-8.6H370.9z"/>
	<path class="st0" d="M381.6,86.1c1.1-1.2,2.6-1.9,4.3-1.8c1.6,0,3.2,0.6,4.3,1.9c1.1,1.3,1.7,2.9,1.7,4.6c0,1.7-0.6,3.3-1.6,4.6
		c-1.1,1.3-2.7,2-4.3,1.9c-1.6,0-3.2-0.6-4.3-1.8C379.3,92.7,379.3,88.8,381.6,86.1L381.6,86.1z M384,94.6c0.3,1.2,0.9,1.7,1.8,1.7
		c0.8,0,1.5-0.5,1.7-1.3c0.3-1.4,0.5-2.8,0.4-4.3c0.1-1.4-0.1-2.9-0.4-4.3c-0.2-0.8-0.8-1.3-1.6-1.3c-0.9,0-1.5,0.6-1.8,1.7
		c-0.2,1.3-0.3,2.6-0.3,3.9C383.7,92,383.8,93.3,384,94.6z"/>
	<path class="st0" d="M393,96.1c0.4,0,0.7-0.1,1-0.4c0.2-0.3,0.3-0.6,0.3-1V94v-7.2c0-0.4-0.1-0.8-0.3-1.1c-0.3-0.2-0.7-0.4-1.1-0.4
		v-0.6h5v2.1c0.5-0.6,1-1.2,1.7-1.7c0.5-0.4,1.2-0.7,1.9-0.6c0.5,0,1.1,0.2,1.5,0.5c0.4,0.4,0.7,0.9,0.6,1.5c0,0.5-0.1,0.9-0.5,1.3
		c-0.3,0.3-0.7,0.5-1.2,0.5c-0.6,0-1.1-0.3-1.5-0.8c-0.4-0.5-0.7-0.8-0.9-0.8c-0.4,0-0.8,0.3-1.1,0.7c-0.4,0.5-0.6,1.2-0.5,1.9v5
		c0,0.9,0.1,1.4,0.4,1.6c0.5,0.3,1,0.4,1.5,0.4v0.6h-7L393,96.1z"/>
	<path class="st0" d="M404.8,98.8c0.4-0.3,0.8-0.4,1.3-0.4c0.4,0,0.8,0.1,1.1,0.4c0.3,0.2,0.4,0.5,0.4,0.9l-0.1,0.6
		c0,0.1,0,0.2,0.1,0.3c0.1,0.1,0.2,0.1,0.4,0.1c0.5,0,0.9-0.4,1.3-1.1c0.4-0.8,0.8-1.7,1.1-2.6l-3.1-7.7c-0.2-0.6-0.4-1.1-0.6-1.6
		c-0.2-0.5-0.4-1-0.7-1.4c-0.1-0.3-0.3-0.6-0.6-0.9c-0.2-0.1-0.5-0.2-0.8-0.2v-0.6h6.6v0.6c-0.3,0-0.7,0-1,0.1
		c-0.2,0.1-0.4,0.3-0.4,0.6c0,0.1,0,0.2,0,0.2c0,0.1,0.1,0.3,0.2,0.6l2.1,5.2h0.1l1.7-4.6l0.2-0.7c0-0.2,0.1-0.3,0.1-0.5
		c0-0.4-0.1-0.6-0.4-0.7c-0.4-0.1-0.7-0.2-1.1-0.2v-0.6h4v0.6c-0.3,0-0.6,0.1-0.8,0.3c-0.3,0.3-0.6,0.7-0.7,1.2l-4,10.5
		c-0.5,1.4-1.2,2.8-2,4c-0.7,0.7-1.6,1.1-2.6,1c-0.7,0.1-1.4-0.2-2-0.6c-0.4-0.4-0.7-0.9-0.7-1.4C404.1,99.6,404.3,99.1,404.8,98.8z
		"/>
	<path class="st0" d="M424.5,96.1c0.5,0,1.1-0.1,1.5-0.3c0.6-0.3,0.9-0.9,0.8-1.6V81.4c0.1-0.6-0.2-1.2-0.8-1.6
		c-0.5-0.2-1-0.3-1.6-0.3v-0.7h9.2v0.7c-0.7,0-1.5,0.1-2.1,0.4c-0.4,0.3-0.5,0.9-0.5,2v12.4c-0.1,0.4,0.1,0.9,0.5,1.2
		c0.6,0.2,1.2,0.3,1.8,0.3c1.4,0,2.8-0.3,4-1.1c1.3-1,2.3-2.5,2.8-4.1h0.8l-1.1,6h-15.3L424.5,96.1z"/>
	<path class="st0" d="M444.4,93.3c0.9-0.9,2.3-0.9,3.2,0c0.9,0.9,0.9,2.3,0,3.2c-0.9,0.9-2.3,0.9-3.2,0l0,0
		C443.5,95.6,443.5,94.2,444.4,93.3z"/>
	<path class="st0" d="M448.7,96.1c0.5,0,1.1-0.1,1.5-0.3c0.6-0.3,0.9-0.9,0.8-1.6V81.4c0.1-0.6-0.2-1.2-0.8-1.6
		c-0.5-0.2-1-0.3-1.6-0.3v-0.7h9.3v0.7c-0.7-0.1-1.5,0.1-2.1,0.4c-0.4,0.3-0.5,0.9-0.5,2v12.4c-0.1,0.4,0.1,0.9,0.5,1.2
		c0.6,0.2,1.2,0.3,1.8,0.3c1.4,0,2.8-0.3,4-1.1c1.3-1,2.3-2.5,2.8-4.1h0.8l-1.1,6h-15.3L448.7,96.1z"/>
	<path class="st0" d="M468.6,93.3c0.9-0.9,2.3-0.9,3.2,0c0.9,0.9,0.9,2.3,0,3.2c-0.4,0.4-1,0.6-1.5,0.6c-1.2,0-2.2-1-2.2-2.2
		C468,94.3,468.2,93.7,468.6,93.3z"/>
	<path class="st0" d="M486,79.2c0.6,0.2,1.2,0.4,1.9,0.6c0.3,0,0.6-0.1,0.8-0.4c0.2-0.2,0.3-0.5,0.4-0.8h0.7v6.2h-0.7
		c-0.5-1.1-1.2-2.2-2-3.2c-1-1.3-2.5-2.1-4.2-2.1c-1.6-0.1-3.1,0.8-3.8,2.3c-0.8,1.9-1.2,4-1.1,6.2c0,1.6,0.2,3.2,0.7,4.7
		c0.5,2.1,2.4,3.5,4.6,3.4c1.3,0,2.7-0.4,3.8-1.1c0.9-0.6,1.7-1.3,2.4-2.1l0.8,0.7c-0.8,0.9-1.7,1.8-2.7,2.5c-1.4,0.9-3,1.4-4.6,1.4
		c-2.4,0.1-4.7-0.7-6.6-2.3c-2-1.7-3-4.3-2.9-6.9c-0.1-2.6,0.9-5.2,2.8-7c1.7-1.7,4.1-2.6,6.5-2.5C483.8,78.6,485,78.8,486,79.2z"/>
	<path class="st0" d="M494.3,93.3c0.9-0.9,2.3-0.9,3.2,0c0.9,0.9,0.9,2.3,0,3.2c-0.9,0.9-2.3,0.9-3.2,0
		C493.4,95.6,493.4,94.2,494.3,93.3L494.3,93.3z"/>
	<path class="st0" d="M210.4,43.7l9.3,21.2l6.4,5.5h-20l5.2-4.6L204.9,51l-4.7,6.1v8.7l4.4,4.6h-18.9l6.6-5V35.5l-6.6-4.8h19.2
		l-4.7,4.8V50l11.1-14.5l-5.2-4.8h17.1l-7,5.4L210.4,43.7z M207.4,43.3l6-7.8l5.2-4.1H208l4.3,3.9l-14.7,19.4V35.4l3.7-3.9H188
		l5,3.9v30.4l-5,3.8h13l-3.4-3.5v-9.8l6.6-8.7l8,18.3l-4.1,3.8h13.8l-4.8-4.1L207.4,43.3z M195.9,66.1l2.6,2.6h-8.2l3.5-2.6V34.9
		l-3.3-2.6h8.1l-2.7,3V66.1z M215.3,65.8l3.7,3h-8.9l3-2.8l-8.4-19.3l1.5-1.9L215.3,65.8z M215.8,32.3l-3.1,2.4l-2.7-2.4L215.8,32.3
		z"/>
	<path class="st0" d="M237.9,30.7v12.8c1.6-1.1,3.4-1.6,5.3-1.6c2.3-0.1,4.6,0.7,6.4,2.1c0.9,0.6,1.5,1.5,1.9,2.5
		c0.4,1.4,0.6,2.9,0.5,4.4v15.8l3.8,3.7H242l3.1-3.7V53.5c0-2.4,0-3.8,0-4.3c0-0.6-0.2-1.2-0.4-1.8c-0.2-0.6-0.5-1.2-1-1.6
		c-0.4-0.4-1-0.6-1.6-0.7c-1.2,0-2.2,1.1-3.1,3.2s-1.2,5.2-1.2,9.5v8.6l3.4,4h-14.7l4.5-4V34.5l-4.3-3.8L237.9,30.7z M235.8,31.4h-7
		l3,2.7v32.6l-3.2,2.9h9.6l-2.4-2.9V52.5c0.3-2.1,1-4.1,2.1-5.9c1.1-1.7,2.4-2.6,3.9-2.6c0.8,0,1.6,0.3,2.3,0.8
		c0.7,0.6,1.2,1.3,1.4,2.2c0.4,2,0.5,4.1,0.4,6.1v14l-2.2,2.5h8.6l-2.4-2.3V51.7c0-1.2,0-2.5-0.2-3.7c-0.1-0.8-0.4-1.5-0.8-2.2
		c-1.3-2.1-3.7-3.3-6.1-3.1c-1.5-0.1-3,0.4-4.2,1.3c-1.3,1.3-2.2,2.9-2.7,4.6L235.8,31.4z M234.4,32.3v34.2l1.9,2.1h-5.2l1.6-1.6
		V33.7l-1.6-1.4L234.4,32.3z M249.9,68.7h-4.3l1-1.2V53c0.1-2.1-0.1-4.3-0.5-6.4c-0.4-1.2-1.2-2.2-2.2-2.8c1.5,0.1,2.8,0.9,3.7,2.1
		c0.4,0.6,0.6,1.3,0.7,2c0.1,1.4,0.2,2.9,0.1,4.3v15L249.9,68.7z"/>
	<path class="st0" d="M274.2,68.4c-1.8,1.8-4.3,2.8-6.8,2.7c-1.9,0.1-3.8-0.6-5.2-1.9c-1.7-1.5-2.6-3.6-2.5-5.9
		c-0.1-2.4,0.8-4.8,2.5-6.5c0.6-0.7,1.4-1.2,2.2-1.5c1.1-0.4,2.3-0.7,3.5-0.8c1.5-0.1,2.9-0.6,4.1-1.5c0.8-0.9,1.2-2.2,1.1-3.4
		c0-1.1-0.1-2.2-0.5-3.2c-0.4-1.2-1.5-2-2.7-1.9c-0.9,0-1.8,0.5-2.3,1.3c-0.6,0.9-1,2.1-0.9,3.2c0,1.2,0.4,2.4,1,3.5
		c-0.7,0.3-1.5,0.4-2.3,0.5c-1.4,0.1-2.7-0.5-3.6-1.5c-0.7-0.8-1.1-1.8-1.1-2.8c0-1.1,0.3-2.1,0.9-3c0.6-1,1.5-1.9,2.5-2.5
		c1.9-1.1,4.2-1.7,6.4-1.6c2.5-0.1,5,0.6,7.1,2c0.9,0.7,1.5,1.6,1.9,2.6c0.4,1.3,0.6,2.7,0.5,4.1v14.3c0,0.8,0,1.6,0.2,2.4
		c0.2,0.5,0.4,0.7,0.8,0.7c1.1,0,1.6-1.6,1.6-4.9c0-0.7,0-1.6-0.2-2.7c1,0.4,1.9,1.1,2.5,1.9c0.5,0.9,0.8,1.9,0.7,2.9
		c0,1.8-0.7,3.6-2,4.8c-1.1,1.1-2.6,1.7-4.2,1.6C277.4,71.1,275.4,70.1,274.2,68.4 M283.2,61.8c0,0.6,0,1,0,1.3
		c0,1.3-0.2,2.7-0.6,3.9c-0.2,0.6-0.5,1.1-1,1.5c-0.4,0.4-0.9,0.6-1.4,0.6c-0.8,0-1.5-0.6-1.9-1.7c-0.5-1.5-0.6-3.1-0.6-4.7v-12
		c0-2.8-0.6-4.8-1.7-6.1c-0.7-0.8-1.6-1.3-2.5-1.7c-1.1-0.4-2.3-0.6-3.5-0.6c-2,0-3.9,0.5-5.6,1.5c-0.9,0.5-1.7,1.3-2.2,2.1
		c-0.5,0.8-0.8,1.8-0.8,2.7c-0.1,0.9,0.3,1.9,1,2.5c0.8,0.7,1.7,1,2.8,1c-0.5-1.1-0.8-2.2-0.8-3.4c-0.1-1.4,0.4-2.9,1.4-3.9
		c0.9-1,2.3-1.6,3.7-1.5c3,0,4.5,2.2,4.5,6.5c0.1,1.4-0.4,2.9-1.4,3.9c-1.4,1-3.1,1.6-4.9,1.7c-1.8,0.1-3.6,0.8-5,2
		C262,58,261.4,59,261,60c-0.4,1.1-0.7,2.2-0.6,3.3c-0.1,2,0.7,3.9,2.1,5.3c1.4,1.2,3.2,1.9,5.1,1.8c1.4,0.1,2.8-0.3,4-1.1
		c1.2-1,2.1-2.2,2.6-3.7c0.2,1,0.6,2,1.2,2.9c1,1.2,2.5,1.9,4,1.8c1.1,0,2.2-0.3,3.1-1c0.6-0.5,1.1-1.2,1.3-2
		c0.3-0.8,0.5-1.8,0.5-2.7C284.3,63.7,284,62.6,283.2,61.8 M266.3,69.4c-1.3-0.2-2.4-0.8-3.4-1.7c-1.1-1.2-1.7-2.8-1.6-4.4
		c-0.1-1.9,0.6-3.8,2-5.2c1-0.9,2.2-1.5,3.4-1.7c-0.8,0.4-1.5,1-2.1,1.6c-1.1,1.4-1.7,3.2-1.7,5.1C262.9,65.6,264.1,68,266.3,69.4
		 M264.8,44.5c-0.9,1.2-1.4,2.7-1.4,4.2c0,0.8,0.2,1.7,0.5,2.4c-1-0.4-1.7-1.4-1.7-2.5C262.2,47.1,263.1,45.7,264.8,44.5
		 M273.8,53.4v7.3c0.1,1.8-0.2,3.5-0.8,5.2c-0.4,1-1,1.8-1.9,2.4c-0.8,0.6-1.7,0.9-2.6,0.9c-1.3,0-2.5-0.7-3.3-1.8
		c-0.9-1.3-1.4-2.9-1.3-4.5c-0.1-1.5,0.3-3.1,1.2-4.3c1.3-1.3,2.9-2.2,4.6-2.7c0.9-0.3,1.8-0.7,2.6-1.2
		C273,54.4,273.5,53.9,273.8,53.4 M273.2,56.1c-1,0.5-1.9,0.9-2.5,1.2c-0.8,0.3-1.6,0.7-2.3,1.2c-0.4,0.3-0.8,0.7-1.1,1.1
		c-0.7,1.1-1,2.4-1,3.7c0,1.1,0.3,2.3,0.9,3.2c0.5,0.8,1.3,1.2,2.2,1.2c1.3,0,2.5-0.8,2.9-2c0.6-1.3,0.9-3.6,0.9-6.9
		C273.2,58.4,273.2,57.5,273.2,56.1 M278.5,69.4c-2.6-0.5-3.8-2.6-3.7-6.3V49.7c0-3-0.7-5.1-2.2-6.2c1.3,0.4,2.4,1.2,3.1,2.3
		c0.6,1.5,0.9,3,0.8,4.6v12c-0.1,1.5,0.1,3.1,0.4,4.6C277.2,67.9,277.7,68.7,278.5,69.4"/>
	<path class="st0" d="M298.9,42.2v24.2l4.4,4h-15.9l4.6-4V46.3l-4.9-4.1L298.9,42.2z M296.8,43h-7.6l3.5,2.9v20.9l-3.1,2.8h10
		l-2.8-2.7V43z M294.3,30.7c1.2,0,2.4,0.4,3.3,1.2c0.9,0.8,1.3,1.9,1.3,3.1c0,1.1-0.5,2.2-1.3,2.9c-0.9,0.8-2,1.2-3.2,1.1
		c-1.3,0-2.5-0.5-3.4-1.4c-0.8-0.8-1.2-1.8-1.2-2.9c0-1.1,0.4-2.2,1.3-2.9C292,31,293.2,30.6,294.3,30.7 M293.8,31.6
		c-0.8,0-1.6,0.3-2.2,0.9c-0.6,0.6-0.9,1.4-0.9,2.3c0,0.8,0.3,1.6,0.9,2.2c0.6,0.6,1.4,0.9,2.2,0.9c0.8,0,1.6-0.3,2.1-0.9
		c0.6-0.6,0.9-1.4,0.9-2.2c0-0.8-0.3-1.7-0.8-2.3C295.5,31.9,294.7,31.5,293.8,31.6 M295.5,43.8v23l1.9,1.7H292l1.6-1.5V45.4
		l-1.9-1.5L295.5,43.8z M293.9,32.6c0.5,0,1,0.2,1.4,0.6c0.4,0.4,0.6,1,0.6,1.5c0,0.6-0.2,1.1-0.6,1.5c-0.4,0.4-0.9,0.6-1.4,0.6
		c-0.6,0-1.1-0.2-1.5-0.6c-0.4-0.4-0.6-1-0.6-1.5c0-0.6,0.2-1.1,0.6-1.5C292.8,32.8,293.3,32.6,293.9,32.6"/>
	<path class="st0" d="M314.8,30.7v12.4c1.3-0.9,2.9-1.3,4.5-1.4c1.9,0,3.8,0.7,5.4,1.9c3.2,2.4,4.7,6.8,4.7,13
		c0,4.1-0.7,7.4-2.1,9.9c-0.8,1.4-1.9,2.6-3.3,3.4c-1.3,0.8-2.9,1.3-4.5,1.3c-1,0-1.9-0.2-2.8-0.6c-1.1-0.6-2.1-1.4-2.9-2.2l-1.3,2
		h-4.6v-36l-3.8-3.6H314.8z M312.7,31.4H306l2.6,2.6v35.6h1.7l2.3-3.5v-1.6c1.5,3.9,3.7,5.9,6.6,5.9c2.4,0,4.4-1.6,5.8-4.9
		c1.3-2.9,2-6.1,2-9.3c0.1-3.3-0.6-6.6-2.1-9.6c-0.6-1.2-1.5-2.3-2.6-3.1c-0.9-0.7-2.1-1.1-3.3-1.2c-1.3,0-2.6,0.5-3.6,1.4
		c-1.2,1.3-2.1,2.8-2.7,4.4L312.7,31.4z M311.3,32.2v34.4l-1.8,2.7V33.6l-1.4-1.4H311.3z M318.4,43.3c1.6,0,2.7,1.2,3.4,3.5
		c0.8,3,1.2,6.2,1.1,9.3c0,8.9-1.5,13.3-4.6,13.3c-1.8,0-3.3-1.3-4.4-3.8c-1.1-2.7-1.5-5.7-1.4-8.6c0-5.2,0.8-8.9,2.3-11.3
		C315.5,44.3,316.9,43.4,318.4,43.3 M318.4,44c-1.1,0-1.9,1.1-2.5,3.3c-0.7,3.4-1.1,6.8-1,10.3c-0.1,2.8,0.2,5.6,0.9,8.4
		c0.5,1.8,1.4,2.7,2.5,2.7c1.3,0,2.3-1.2,2.9-3.5c0.7-2.9,1-5.9,1-8.9c0.1-3.2-0.3-6.4-1.1-9.5C320.5,44.9,319.6,44,318.4,44
		 M320.9,69.2c1.1-1.2,1.9-2.7,2.2-4.3c0.6-2.9,0.8-5.9,0.8-8.9c0-2.8-0.3-5.5-0.9-8.2c-0.1-0.8-0.4-1.6-0.7-2.3
		c-0.3-0.6-0.7-1.2-1.2-1.7c1.2,0.9,2.2,2.1,2.9,3.6c1.2,2.9,1.7,5.9,1.7,9c0,3.1-0.5,6.1-1.7,9C323.4,66.9,322.3,68.3,320.9,69.2"
		/>
	<path class="st0" d="M341.2,56.4c0,0.8,0,1.4,0,1.8c-0.1,2.5,0.4,5.1,1.4,7.4c0.9,1.8,2.2,2.7,3.8,2.7c1.5,0,2.9-0.8,3.6-2.1
		c1-1.7,1.4-3.7,1.4-5.7c0-0.4,0-0.9,0-1.5c2.7,0.4,4,2,4,4.7c0.1,2.3-1.1,4.5-3.1,5.7c-4.8,2.8-10.9,2.1-15-1.8
		c-2-2.2-3.1-5.6-3.1-10.3c0-5.1,1.1-9.1,3.2-12.1c1.7-2.5,4.5-4,7.5-3.9c2.4,0,4.7,0.9,6.3,2.7c2.4,2.5,3.7,6.7,3.8,12.4
		L341.2,56.4z M352.7,55.7c0.1-2.6-0.2-5.2-0.9-7.7c-0.5-1.7-1.6-3.2-2.9-4.3c-1.2-1-2.7-1.6-4.2-1.6c-1.3,0-2.6,0.4-3.7,1
		c-1.2,0.7-2.3,1.6-3.1,2.7c-2,2.8-3,6.7-3,11.6c0,4.5,1,7.8,3,9.9c2,2,4.7,3.1,7.5,3c2.4,0.1,4.6-0.9,6.1-2.7
		c1.1-1.3,1.7-2.9,1.8-4.6c0-1-0.4-2-1.1-2.8V61c0,1.6-0.3,3.2-0.8,4.7c-0.5,1.1-1.3,2.1-2.3,2.8c-1,0.7-2.1,1-3.3,1
		c-2.2,0-4.3-1.2-5.3-3.1c-1.3-2.1-2-4.9-2-8.5c0-0.5,0-1.2,0.1-2.2L352.7,55.7z M341,68.5c-1.5-0.6-2.7-1.7-3.6-3.1
		c-1.3-2.5-1.9-5.3-1.8-8.1c0-6,1.6-10.4,4.9-13.1c-0.8,1.1-1.4,2.4-1.8,3.7c-1,3-1.5,6.2-1.5,9.4c0,2.2,0.3,4.4,0.9,6.5
		C338.7,65.5,339.7,67.1,341,68.5 M349.3,54.5h-10.7c0.1-2.7,0.7-5.4,1.7-7.9c1-2.4,2.4-3.6,4-3.6c1.6,0,2.8,0.9,3.7,2.7
		c1,2.4,1.4,4.9,1.3,7.5C349.3,53.5,349.3,53.9,349.3,54.5 M341.5,53.8h7.1c0-2-0.2-4-0.6-5.9c-0.7-2.6-1.8-3.9-3.3-3.9
		c-1,0-1.8,0.9-2.4,2.6C341.6,48.9,341.4,51.3,341.5,53.8 M351.5,54.6h-1.3c0-2.3-0.2-4.6-0.6-6.8c-0.4-1.6-1.2-3-2.3-4.3
		C350.2,45.1,351.6,48.7,351.5,54.6"/>
	<path class="st0" d="M369.9,66.1l4.8,4.3h-16l4.4-4v-20l-4.6-4.2h11.5v2.6c2-2.3,4-3.5,6.1-3.5c1.7,0,3.3,0.7,4.3,2
		c1.2,1.5,1.8,3.4,1.7,5.3c0.1,1.9-0.5,3.7-1.6,5.2c-0.9,1.3-2.5,2-4.1,2c-0.4,0-0.8,0-1.2-0.1c0.6-1.9,1-3.8,1.1-5.8
		c0.1-1.3-0.2-2.6-0.8-3.8c-0.3-0.7-1-1.1-1.7-1.2c-1.2,0-2.1,1.1-2.8,3.2c-0.8,2.8-1.1,5.7-1,8.6L369.9,66.1z M367.8,54.2
		c0.4-1.8,1-3.6,1.7-5.3c1.4-3.2,2.8-4.8,4.4-4.8c1,0.1,1.9,0.7,2.3,1.6c0.6,1.3,0.9,2.7,0.9,4.2c-0.1,1.7-0.3,3.5-0.8,5.1
		c1-0.1,1.8-0.6,2.4-1.3c1-1.4,1.6-3.1,1.5-4.9c0.1-1.7-0.4-3.4-1.4-4.8c-0.7-1.1-1.9-1.7-3.2-1.8c-2,0-3.8,1.3-5.5,3.9
		c-1,1.7-1.7,3.4-2.3,5.3V43h-7.3l3.3,3v20.8l-3,2.8h9.7l-2.7-2.4L367.8,54.2z M366.4,43.8v23.4l1.6,1.4h-5l1.6-1.4V45.6l-1.9-1.8
		L366.4,43.8z M377.4,53.6c0.3-1.2,0.4-2.4,0.5-3.7c0-3.8-1.2-6-3.7-6.7c0.3-0.1,0.7-0.1,1-0.1c1.1,0,2.2,0.7,2.7,1.7
		c0.8,1.3,1.2,2.7,1.1,4.2c0,0.9-0.1,1.8-0.3,2.6C378.4,52.3,378,53,377.4,53.6"/>
	<path class="st0" d="M423.3,45.4H419c-0.1-2.3-0.7-4.5-1.5-6.7c-1.6-3.9-3.8-5.8-6.6-5.8c-1.4,0-2.8,0.6-3.7,1.7
		c-1,1.2-1.5,2.7-1.5,4.3c-0.1,2.1,0.9,4.1,2.5,5.3c0.8,0.6,3,1.4,6.5,2.5c2.9,0.7,5.6,2.1,8,4c2.4,2.2,3.8,5.4,3.7,8.8
		c0.1,3.1-1,6-3.1,8.3c-2.4,2.6-5.8,3.9-10,3.9c-1.3,0-2.6-0.1-3.9-0.5c-1.3-0.4-2.6-1-3.8-1.7l-1.7,2h-4.6V54.2h4.1
		c0.3,3.3,1.3,6.5,2.8,9.5c0.7,1.3,1.8,2.5,3,3.4c1.1,0.8,2.3,1.2,3.7,1.2c1.5,0,3-0.6,4-1.7c1.1-1.2,1.7-2.7,1.6-4.3
		c0.1-2.3-1-4.5-2.8-6c-0.6-0.5-1.3-0.9-2-1.2c-0.7-0.3-2.3-0.7-4.8-1.3c-3-0.6-5.7-2.1-7.9-4.3c-2.1-2.3-3.2-5.4-3.1-8.5
		c-0.1-2.7,0.8-5.4,2.4-7.6c1-1.2,2.3-2.2,3.7-2.9c1.5-0.7,3.1-1,4.7-1c1.4,0,2.8,0.2,4.1,0.8c1.5,0.7,2.9,1.7,4.1,2.8l2.9-3.2h3.1
		V45.4z M420.8,44.6V30.9h-0.3l-3.2,3.4c-1.2-1.2-2.6-2.2-4.1-3c-1.3-0.6-2.8-0.9-4.2-0.9c-3-0.1-5.8,1.2-7.7,3.5
		c-1.6,2-2.5,4.5-2.4,7.1c-0.2,3.9,1.7,7.6,5,9.8c0.8,0.6,1.8,1.1,2.7,1.4c0.9,0.3,2.7,0.8,5.5,1.5c2.3,0.4,4.3,1.7,5.8,3.5
		c1.1,1.5,1.7,3.3,1.6,5.2c0,1.5-0.5,3-1.5,4.2c-1.4,1.8-3.6,2.7-5.8,2.6c-1.9,0-3.7-0.6-5.2-1.7c-1.7-1.2-3.1-2.8-4-4.6
		c-1-2.5-1.7-5.2-2-7.9h-0.9v15.4h0.9l3.2-3.8c0.7,0.7,1.4,1.3,2.2,1.9c3.9,2.9,9.2,3,13.2,0.4c1.4-0.9,2.5-2.2,3.3-3.7
		c0.8-1.5,1.2-3.3,1.2-5c0-3.6-1.8-6.9-4.8-8.9c-0.8-0.6-1.8-1.1-2.7-1.4c-0.9-0.3-2.5-0.8-4.8-1.4c-2.3-0.5-4.5-1.5-6.3-2.9
		c-0.8-0.8-1.5-1.7-1.9-2.7c-0.5-1.1-0.7-2.3-0.7-3.5c0-2,0.7-4,2.1-5.5c1.1-1.4,2.8-2.3,4.6-2.3c1.7,0,3.3,0.6,4.6,1.6
		c1.5,1.1,2.7,2.6,3.5,4.4c1.1,2.3,1.8,4.7,2.1,7.2H420.8z M415.5,69.6c1.2-0.5,2.3-1.3,3.1-2.3c1.1-1.4,1.7-3.2,1.7-5
		c0-2.9-1.3-5.6-3.6-7.3c-0.7-0.6-1.4-1-2.3-1.3c-0.8-0.3-2.5-0.8-5.1-1.5c-1.5-0.4-2.9-0.9-4.2-1.6c-1-0.5-1.9-1.2-2.7-2.1
		c-0.9-1-1.6-2.2-2-3.5c-0.5-1.3-0.8-2.7-0.8-4.1c-0.1-2.4,0.7-4.6,2.2-6.5c1-1.2,2.4-2,3.9-2.5c-1.4,1-2.5,2.2-3.4,3.6
		c-0.7,1.3-1,2.7-1,4.1c0,1.7,0.4,3.3,1.2,4.8c0.8,1.4,1.9,2.7,3.2,3.6c0.7,0.5,1.5,0.8,2.3,1.1c0.8,0.3,2.5,0.8,5.1,1.5
		c2.6,0.6,5,1.8,7,3.7c1.6,1.7,2.5,4,2.4,6.3c0,2-0.5,3.9-1.7,5.5c-0.6,0.9-1.3,1.6-2.2,2.2C417.8,68.8,416.7,69.3,415.5,69.6
		 M401,69v-8.5c0.3,1,0.6,1.9,1,2.8c0.5,0.9,1,1.7,1.6,2.6L401,69z M419.8,32.8v6.8c-0.4-1.6-1.1-3.2-2-4.5L419.8,32.8z"/>
	<path class="st0" d="M439.4,44.8v19.2c0,2.3,0.6,3.5,1.7,3.5c1.4,0,2.1-1.8,2.1-5.3c0-0.8,0-1.8-0.1-3c3,0.6,4.5,2.4,4.5,5.2
		c0.1,1.8-0.7,3.5-2,4.6c-1.6,1.4-3.7,2.1-5.9,2c-2,0.1-4-0.6-5.5-2c-0.6-0.5-1-1.1-1.3-1.9c-0.3-0.9-0.4-1.8-0.4-2.7V44.8h-3.5v-2
		c1.7-1.2,3.2-2.7,4.4-4.3c1.1-1.8,1.9-3.7,2.5-5.7h3.3v9.4h6.2v2.7L439.4,44.8z M437.3,44h5.8v-0.9h-6v-9.5h-0.8
		c-0.4,2-1.2,3.8-2.3,5.5c-1.1,1.6-2.5,3-4.2,4.1v0.9h3.5v19.7c0,1,0.1,2,0.3,2.9c0.2,0.7,0.6,1.3,1.2,1.8c1.3,1.1,2.9,1.7,4.6,1.6
		c2,0.2,3.9-0.8,4.9-2.5c0.7-1.2,1.1-2.5,1.1-3.9c0.1-1.4-0.5-2.7-1.6-3.5c0.1,0.8,0.2,1.6,0.2,2.5c0,1.4-0.2,2.8-0.7,4.1
		c-0.4,1.3-1.6,2.2-3,2.1c-2,0-3-1.7-3-5.2L437.3,44z M436,37.4v25.7c-0.1,1.3,0.1,2.5,0.4,3.7c0.4,0.9,0.9,1.7,1.7,2.2
		c-1.2-0.2-2.3-0.7-3.1-1.6c-0.6-1.1-0.9-2.3-0.8-3.5V43.2h-2.8C433.3,41.5,434.9,39.6,436,37.4"/>
	<path class="st0" d="M465.8,68.4c-1.8,1.8-4.3,2.8-6.8,2.7c-1.9,0.1-3.8-0.6-5.2-1.9c-1.7-1.5-2.6-3.6-2.5-5.9
		c-0.1-2.4,0.8-4.8,2.5-6.5c0.6-0.7,1.4-1.2,2.2-1.5c1.1-0.4,2.3-0.7,3.5-0.8c1.5-0.1,2.9-0.6,4.1-1.5c0.8-0.9,1.2-2.2,1.1-3.4
		c0-1.1-0.1-2.2-0.5-3.2c-0.4-1.2-1.5-2-2.7-1.9c-0.9,0-1.8,0.5-2.3,1.3c-0.6,0.9-0.9,2.1-0.9,3.2c0,1.2,0.4,2.4,0.9,3.5
		c-0.7,0.3-1.5,0.4-2.3,0.5c-1.4,0.1-2.7-0.5-3.6-1.5c-0.7-0.8-1.1-1.8-1.1-2.8c0-1.1,0.3-2.1,0.9-3c0.6-1,1.4-1.9,2.4-2.5
		c1.9-1.1,4.1-1.7,6.4-1.6c2.5-0.1,5,0.6,7.1,2c0.8,0.7,1.5,1.6,1.8,2.6c0.4,1.3,0.6,2.7,0.5,4.1v14.3c0,0.8,0,1.6,0.2,2.4
		c0.2,0.5,0.4,0.7,0.8,0.7c1.1,0,1.6-1.6,1.6-4.9c0-0.7-0.1-1.6-0.2-2.7c1,0.4,1.9,1.1,2.5,1.9c0.5,0.9,0.8,1.9,0.7,2.9
		c0,1.8-0.7,3.6-2,4.8c-1.1,1.1-2.6,1.7-4.1,1.7C469,71.1,467,70.1,465.8,68.4 M474.7,61.8c0,0.6,0,1,0,1.3c0,1.3-0.2,2.7-0.6,4
		c-0.2,0.6-0.5,1.1-1,1.5c-0.4,0.4-0.9,0.6-1.4,0.6c-0.8,0-1.5-0.6-1.9-1.7c-0.4-1.5-0.6-3.1-0.5-4.7v-12c0-2.8-0.6-4.8-1.7-6.1
		c-0.7-0.8-1.6-1.3-2.5-1.7c-1.1-0.4-2.3-0.6-3.4-0.6c-2,0-3.9,0.5-5.5,1.5c-0.9,0.5-1.7,1.3-2.2,2.1c-0.5,0.8-0.8,1.8-0.8,2.7
		c0,0.9,0.3,1.9,1,2.5c0.8,0.7,1.7,1,2.8,1c-0.5-1.1-0.8-2.2-0.8-3.4c-0.1-1.4,0.4-2.9,1.4-3.9c0.9-1,2.3-1.6,3.6-1.5
		c3,0,4.5,2.2,4.5,6.5c0.1,1.4-0.4,2.9-1.4,3.9c-1.4,1-3.1,1.6-4.8,1.7c-1.8,0.1-3.5,0.8-4.9,2c-0.7,0.8-1.3,1.7-1.6,2.7
		c-0.4,1.1-0.6,2.2-0.6,3.3c-0.1,2,0.7,3.9,2.1,5.3c1.4,1.2,3.2,1.9,5.1,1.8c1.4,0.1,2.8-0.3,3.9-1.1c1.2-1,2.1-2.2,2.6-3.7
		c0.2,1,0.6,2,1.2,2.8c1,1.2,2.5,1.9,4,1.8c1.1,0,2.2-0.3,3.1-1c0.6-0.5,1-1.2,1.3-2c0.3-0.8,0.5-1.7,0.5-2.7c0-1.1-0.4-2.1-1-3
		 M458,69.4c-1.3-0.2-2.4-0.8-3.4-1.7c-1.1-1.2-1.7-2.8-1.6-4.4c-0.1-1.9,0.7-3.8,2-5.2c1-0.9,2.1-1.5,3.4-1.7
		c-0.8,0.4-1.5,1-2.1,1.6c-1.1,1.4-1.7,3.2-1.6,5.1C454.6,65.6,455.9,68,458,69.4 M456.6,44.5c-0.9,1.2-1.4,2.7-1.4,4.2
		c0,0.8,0.2,1.7,0.5,2.4c-1-0.4-1.7-1.4-1.7-2.5C454,47.1,454.9,45.7,456.6,44.5 M465.6,53.4v7.3c0.1,1.8-0.2,3.5-0.7,5.2
		c-0.4,1-1,1.8-1.9,2.4c-0.8,0.6-1.7,0.9-2.6,0.9c-1.3,0-2.5-0.7-3.2-1.8c-0.9-1.3-1.4-2.9-1.4-4.5c-0.1-1.5,0.3-3.1,1.2-4.3
		c1.3-1.3,2.8-2.2,4.5-2.7c0.9-0.3,1.8-0.7,2.6-1.2C464.6,54.4,465.1,53.9,465.6,53.4 M464.8,56.1c-1.1,0.5-1.9,0.9-2.5,1.2
		c-0.8,0.3-1.6,0.7-2.3,1.2c-0.4,0.3-0.8,0.7-1.1,1.1c-0.7,1.1-1,2.4-0.9,3.7c0,1.1,0.3,2.3,0.9,3.2c0.5,0.8,1.3,1.2,2.2,1.2
		c1.3,0,2.5-0.8,2.9-2c0.6-1.3,0.8-3.6,0.8-6.9C464.8,58.4,464.8,57.5,464.8,56.1 M470.1,69.4c-2.6-0.5-3.8-2.6-3.7-6.3V49.7
		c0-3-0.7-5.1-2.2-6.2c1.3,0.4,2.3,1.2,3.1,2.3c0.6,1.5,0.9,3,0.8,4.6v12c-0.1,1.5,0.1,3.1,0.4,4.6
		C468.8,67.9,469.3,68.7,470.1,69.4"/>
	<path class="st0" d="M490,66.1l4.8,4.3h-15.9l4.3-4v-20l-4.6-4.2H490v2.6c2-2.3,4-3.5,6.1-3.5c1.7,0,3.3,0.7,4.3,2
		c1.2,1.5,1.8,3.4,1.7,5.3c0.1,1.9-0.5,3.7-1.5,5.2c-0.9,1.3-2.4,2-4,2c-0.4,0-0.8,0-1.2-0.1c0.6-1.9,1-3.8,1-5.8
		c0.1-1.3-0.2-2.6-0.8-3.8c-0.3-0.7-1-1.1-1.7-1.2c-1.2,0-2.1,1.1-2.8,3.2c-0.8,2.8-1.1,5.7-1,8.6L490,66.1z M487.9,54.2
		c0.4-1.8,1-3.6,1.7-5.3c1.4-3.2,2.8-4.8,4.4-4.8c1,0.1,1.9,0.7,2.3,1.6c0.6,1.3,0.9,2.7,0.9,4.2c-0.1,1.7-0.3,3.5-0.8,5.1
		c1-0.1,1.8-0.6,2.4-1.3c1-1.4,1.6-3.1,1.5-4.9c0.1-1.7-0.4-3.4-1.4-4.8c-0.7-1.1-1.9-1.7-3.2-1.8c-2,0-3.8,1.3-5.4,3.9
		c-1,1.7-1.7,3.4-2.3,5.3V43h-7.2l3.3,3v20.8l-3,2.8h9.7l-2.7-2.4L487.9,54.2z M486.6,43.8v23.4l1.6,1.4h-5l1.6-1.4V45.6l-1.9-1.8
		H486.6z M497.5,53.6c0.3-1.2,0.4-2.4,0.5-3.7c0-3.8-1.2-6-3.7-6.7c0.3-0.1,0.7-0.1,1-0.1c1.1,0,2.2,0.7,2.7,1.6
		c0.8,1.3,1.1,2.7,1.1,4.2c0,0.9-0.1,1.8-0.3,2.6C498.5,52.3,498.1,53,497.5,53.6"/>
	<g>
		<defs>
			<path id="SVGID_1_" d="M161.9,103.2v-7.2l-3.4-38.7c0,0-3.1-28.4-2.4-31.7c0,0-8.8-3.1-14.8-2l0.3,2.6l-1.2,0.2l-0.5-4.1
				l-4.4,1.3c0,0-5-2.9-4.6,1.8s0.2,0.6,0.2,0.6l-4.3,0.4l-0.6,8.2l-2,0.5l-0.6,1.9l-2.3,0.8l-1-2.5h-8.7l-0.1,2l-1.9,0.2l-0.1-2.7
				l-8.9,0.2l-0.6,2.2L98,38l-0.4-2.8l-8.5-0.4l-0.3,3l-1.9,0.1l-1-2.7c-2.2-0.4-4.5-0.5-6.7-0.3L79.1,38L76,38.5l-0.2-3.4l-8.2-0.2
				V38l-2.9-0.3L64.4,35l-9,0.3l-0.2,2.9l-2.8-0.4l-0.9-2.3l-7.5,0v2.2h-2.8l-0.4-2.6l-4.1-0.3L35.6,26l-1.7-0.6l-2,0.7l-0.2-1.5
				c0,0-3.3-4.2-7-1.9L19,22.2l-0.3,1.3l-4.4,0.3l-0.2,2.1c0,0-2.1-3.1-9.2,0.3L1.7,78.9L0,105c6.6,0.7,13.2,1.1,19.8,1.2
				c0,0,17.6-0.7,20.4-1l-0.8-23.7l-0.6-0.5L39,63.1c0,0,17.7-4.5,43.9-5.6c0,0,16.2,0,42,5.3l-0.6,21.1l-0.6,19.4L161.9,103.2z"/>
		</defs>
		<use xlink:href="#SVGID_1_"  style="overflow:visible;fill:#FFFFFF;"/>
		<clipPath id="SVGID_00000070106354695695988410000004606096888634790321_">
			<use xlink:href="#SVGID_1_"  style="overflow:visible;"/>
		</clipPath>
		<g style="clip-path:url(#SVGID_00000070106354695695988410000004606096888634790321_);">
			<g>
				<defs>
					<rect id="SVGID_00000016786998804420777270000001760392776964811692_" x="-0.4" y="2.6" width="162.3" height="103.8"/>
				</defs>
				<use xlink:href="#SVGID_00000016786998804420777270000001760392776964811692_"  style="overflow:visible;fill:#FFFFFF;"/>
				<clipPath id="SVGID_00000049209130069908639860000005321948791958046364_">
					<use xlink:href="#SVGID_00000016786998804420777270000001760392776964811692_"  style="overflow:visible;"/>
				</clipPath>
				<g style="clip-path:url(#SVGID_00000049209130069908639860000005321948791958046364_);">
					<g>
						<defs>
							<rect id="SVGID_00000078727487006014930290000009252783663413617036_" x="-0.4" y="2.6" width="162.3" height="103.8"/>
						</defs>
						<use xlink:href="#SVGID_00000078727487006014930290000009252783663413617036_"  style="overflow:visible;fill:#FFFFFF;"/>
						<clipPath id="SVGID_00000020359003530896017170000010907083847063710896_">
							<use xlink:href="#SVGID_00000078727487006014930290000009252783663413617036_"  style="overflow:visible;"/>
						</clipPath>
						<g style="clip-path:url(#SVGID_00000020359003530896017170000010907083847063710896_);">
							
								<image style="overflow:visible;enable-background:new    ;" width="915" height="585" xlink:href="48793169322E689.png"  transform="matrix(0.18 0 0 0.18 -0.3444 2.57)">
							</image>
						</g>
					</g>
				</g>
			</g>
			<rect x="73.3" y="-6.7" class="st0" width="18" height="41.6"/>
			<path class="st0" d="M161.9,103.2v-7.2l-3.4-38.7c0,0-3.1-28.4-2.4-31.7c0,0-8.8-3.1-14.8-2l0.3,2.6l-1.2,0.2l-0.5-4.1l-4.4,1.3
				c0,0-5-2.9-4.6,1.8s0.2,0.6,0.2,0.6l-4.3,0.4l-0.6,8.2l-2,0.5l-0.6,1.9l-2.3,0.8l-1-2.5h-8.7l-0.1,2l-1.9,0.2l-0.1-2.7l-8.9,0.2
				l-0.6,2.2L98,38l-0.4-2.8l-8.5-0.4l-0.3,3l-1.9,0.1l-1-2.7c-2.2-0.4-4.5-0.5-6.7-0.3L79.1,38L76,38.5l-0.2-3.4l-8.2-0.2V38
				l-2.9-0.3L64.4,35l-9,0.3l-0.2,2.9l-2.8-0.4l-0.9-2.3l-7.5,0v2.2h-2.8l-0.4-2.6l-4.1-0.3L35.6,26l-1.7-0.6l-2,0.7l-0.2-1.5
				c0,0-3.3-4.2-7-1.9L19,22.2l-0.3,1.3l-4.4,0.3l-0.2,2.1c0,0-2.1-3.1-9.2,0.3L1.7,78.9L0,105c6.6,0.7,13.2,1.1,19.8,1.2
				c0,0,17.6-0.7,20.4-1l-0.8-23.7l-0.6-0.5L39,63.1c0,0,17.7-4.5,43.9-5.6c0,0,16.2,0,42,5.3l-0.6,21.1l-0.6,19.4L161.9,103.2z"/>
		</g>
	</g>
	<polygon class="st0" points="78.7,0 78.7,40.9 81.7,39.9 81.7,27.4 83.2,22.7 82.1,20.4 81.9,5.8 83.2,4.3 	"/>
</g>
</svg>
