<?xml version="1.0" encoding="utf-8"?>
<!-- Generator: Adobe Illustrator 24.0.1, SVG Export Plug-In . SVG Version: 6.00 Build 0)  -->
<svg version="1.1" id="Layer_1" xmlns="http://www.w3.org/2000/svg" xmlns:xlink="http://www.w3.org/1999/xlink" x="0px" y="0px"
	 viewBox="0 0 512 512" style="enable-background:new 0 0 512 512;" xml:space="preserve">
<style type="text/css">
	.st0{fill:#ECEFF1;}
	.st1{fill:#4CAF50;}
	.st2{fill:#FAFAFA;}
</style>
<g>
	<path class="st0" d="M437.8,73.6C389.1,26.6,325.1,0,257,0C61.3,0-61.5,211.9,36.2,380.5L0,512l135.1-35.2
		c58.9,31.8,107.1,29,121.9,30.9c226.8,0,339.8-274.4,180.4-433.2L437.8,73.6z"/>
	<path class="st1" d="M257.4,464l-0.1,0H257c-67.9,0-111.3-32.1-115.5-34l-80,20.8L82.9,373l-5.1-8c-21.1-33.6-32.3-72.3-32.3-112.2
		C45.4,65.2,274.7-28.6,407.3,104C539.6,235.2,446.7,464,257.4,464z"/>
	<path class="st2" d="M373.5,305.2l-0.2,1.6c-6.4-3.2-37.7-18.5-43.5-20.6c-13.1-4.8-9.4-0.8-34.5,28c-3.7,4.2-7.4,4.5-13.8,1.6
		c-6.4-3.2-26.9-9.9-51.3-31.7c-18.9-17-31.7-37.8-35.4-44.2c-6.3-10.8,6.8-12.3,18.7-34.9c2.1-4.5,1-8-0.5-11.2
		c-1.6-3.2-14.3-34.6-19.7-47.1C188.2,134.4,183,136,179,136c-12.3-1.1-21.3-0.9-29.2,7.3c-34.4,37.8-25.7,76.9,3.7,118.4
		c57.9,75.8,88.7,89.7,145.2,109.1c15.2,4.8,29.1,4.2,40.1,2.6c12.2-1.9,37.7-15.4,43-30.4c5.4-15,5.4-27.5,3.8-30.4
		C384.1,309.7,379.9,308.1,373.5,305.2L373.5,305.2z"/>
</g>
</svg>
